<?xml version="1.0" encoding="UTF-8" standalone="no"?>
<!-- Generator: Adobe Illustrator 12.0.0, SVG Export Plug-In . SVG Version: 6.00 Build 51448)  --><svg height="137.78" id="Layer_1" inkscape:version="0.42" sodipodi:docbase="F:\openclip\svg da inviare" sodipodi:docname="database.svg" sodipodi:version="0.32" space="preserve" style="overflow:visible;enable-background:new 0 0 119.064 137.78;" version="1.1" viewBox="0 0 119.064 137.78" width="119.064" xmlns="http://www.w3.org/2000/svg" xmlns:cc="http://web.resource.org/cc/" xmlns:dc="http://purl.org/dc/elements/1.1/" xmlns:inkscape="http://www.inkscape.org/namespaces/inkscape" xmlns:rdf="http://www.w3.org/1999/02/22-rdf-syntax-ns#" xmlns:sodipodi="http://inkscape.sourceforge.net/DTD/sodipodi-0.dtd" xmlns:svg="http://www.w3.org/2000/svg">
  <metadata>
    <rdf:RDF xmlns:cc="http://web.resource.org/cc/" xmlns:dc="http://purl.org/dc/elements/1.1/" xmlns:rdf="http://www.w3.org/1999/02/22-rdf-syntax-ns#">
      <cc:Work rdf:about="">
        <dc:title>Database, Base de donnée</dc:title>
        <dc:description></dc:description>
        <dc:subject>
          <rdf:Bag>
            <rdf:li>unsorted</rdf:li>
          </rdf:Bag>
        </dc:subject>
        <dc:publisher>
          <cc:Agent rdf:about="http://www.openclipart.org/">
            <dc:title>Open Clip Art Library</dc:title>
          </cc:Agent>
        </dc:publisher>
        <dc:creator>
          <cc:Agent>
            <dc:title>Architetto Francesco Rollandin</dc:title>
          </cc:Agent>
        </dc:creator>
        <dc:rights>
          <cc:Agent>
            <dc:title>Architetto Francesco Rollandin</dc:title>
          </cc:Agent>
        </dc:rights>
        <dc:date></dc:date>
        <dc:format>image/svg+xml</dc:format>
        <dc:type rdf:resource="http://purl.org/dc/dcmitype/StillImage"/>
        <cc:license rdf:resource="http://web.resource.org/cc/PublicDomain"/>
        <dc:language>en</dc:language>
      </cc:Work>
      <cc:License rdf:about="http://web.resource.org/cc/PublicDomain">
        <cc:permits rdf:resource="http://web.resource.org/cc/Reproduction"/>
        <cc:permits rdf:resource="http://web.resource.org/cc/Distribution"/>
        <cc:permits rdf:resource="http://web.resource.org/cc/DerivativeWorks"/>
      </cc:License>
    </rdf:RDF>
  </metadata>
  <defs id="defs94"/>
  <sodipodi:namedview bordercolor="#666666" borderopacity="1.0" id="base" inkscape:current-layer="Layer_1" inkscape:cx="59.532001" inkscape:cy="68.889999" inkscape:pageopacity="0.0" inkscape:pageshadow="2" inkscape:window-height="510" inkscape:window-width="787" inkscape:window-x="22" inkscape:window-y="29" inkscape:zoom="2.6128611" pagecolor="#ffffff"/>
  <g id="g3">
    <linearGradient gradientUnits="userSpaceOnUse" id="XMLID_7_" x1="0.9468" x2="117.5381" y1="109.2632" y2="109.2632">
      <stop id="stop6" offset="0" style="stop-color:#DFDFDF"/>
      <stop id="stop8" offset="0.2168" style="stop-color:#DADADA"/>
      <stop id="stop10" offset="0.4798" style="stop-color:#CBCBCB"/>
      <stop id="stop12" offset="0.7655" style="stop-color:#B3B3B3"/>
      <stop id="stop14" offset="1" style="stop-color:#9A9999"/>
    </linearGradient>
    <path d="M59.245,81.758c-16.198,0-34.292,0.914-49.354,7.532c-9.702,4.264-8.862,9.426-8.862,18.82   c0,10.063-1.553,16.549,8.862,21.125c15.062,6.618,33.156,7.532,49.354,7.532c16.196,0,34.29-0.914,49.353-7.532   c10.408-4.575,8.859-11.047,8.859-21.107c0-9.4,0.848-14.572-8.859-18.838C93.535,82.672,75.441,81.758,59.245,81.758" id="path16" style="fill:url(#XMLID_7_);"/>
    <linearGradient gradientTransform="matrix(0 205.5401 205.5401 0 -94889.9219 51048.3828)" gradientUnits="userSpaceOnUse" id="XMLID_8_" x1="-248.4731" x2="-246.6894" y1="461.9517" y2="461.9517">
      <stop id="stop19" offset="0" style="stop-color:#FFFFFF"/>
      <stop id="stop21" offset="1" style="stop-color:#000000"/>
    </linearGradient>
    <path d="M0.111,97.803c0,7.478,0,14.952,0,22.43c0,10.707,20.244,13.583,27.649,14.884   c19.037,3.34,38.954,3.471,58.077,0.771c7.419-1.048,32.537-3.764,32.537-15.165c1.182-7.064,0-15.253,0-22.43   c0-10.705-20.244-13.582-27.648-14.882c-19.038-3.344-38.953-3.473-58.076-0.773C25.231,83.686,0.111,86.404,0.111,97.803    M1.945,120.723c0-7.115-1.563-16.009,0-22.92c0-8.952,21.52-11.87,27.212-12.829c19.661-3.31,40.515-3.31,60.175,0   c5.69,0.959,27.209,3.877,27.209,12.829c0.727,3.217,0,7.433,0,10.714c0,3.741,0.83,8.542,0,12.206   c0,8.954-21.516,11.87-27.209,12.83c-19.66,3.31-40.515,3.31-60.175,0C23.463,132.593,1.945,129.677,1.945,120.723" id="path23" style="fill:url(#XMLID_8_);"/>
    <path d="M115.27,94.8c0.684,4.564,0.051,9.646,0.051,14.248c0,3.567,1.216,9.359-1.346,12.368   c-4.271,5.016-12.504,6.906-18.577,8.336c-11.8,2.774-24.058,3.652-36.152,3.652c-11.452,0-23.015-0.808-34.23-3.221   c-6.582-1.416-14.912-3.24-19.918-8.146c-2.984-2.923-1.929-7.76-1.929-11.542c0-5.047-0.742-10.697,0.052-15.696   c-3.039,3.653-1.275,12.389-1.275,16.692c0,3.515-1.218,9.307,1.302,12.281c4.13,4.882,12.11,6.751,17.999,8.175   c12.385,2.993,25.292,3.901,38,3.901c12.086,0,24.31-0.848,36.131-3.471c6.381-1.415,14.459-3.221,19.302-7.998   c2.923-2.884,1.863-7.728,1.863-11.439C116.541,108.353,118.5,98.683,115.27,94.8" id="path25" style="fill:#C6C6C6;"/>
    <path d="M115.32,101.431c0,3.094-9.531,6.556-11.499,7.342c-13.091,5.226-27.68,6.585-41.647,6.774   c-15.248,0.207-31.057-1.056-45.492-6.316c-0.784-0.284-14.697-6.201-13.492-7.871c0.262-0.363,11.674,4.182,12.449,4.4   c15.042,4.235,31,5.146,46.551,4.978c13.896-0.147,28.103-1.225,41.503-5.145C104.532,105.349,115.32,102.036,115.32,101.431" id="path27" style="fill:#E5E5E5;"/>
    <path d="M59.245,0.097c-16.313,0-34.572,0.979-49.738,7.612c-10.256,4.484-9.396,10.297-9.396,20.062   c0,9.221-1.663,16.163,7.861,20.844c15.241,7.49,34.625,8.323,51.273,8.323c16.313,0,34.568-0.981,49.734-7.613   c10.256-4.485,9.396-10.297,9.396-20.062c0-9.222,1.663-16.164-7.86-20.844C95.274,0.93,75.892,0.097,59.245,0.097" id="path29" style="fill:#F4F2F2;"/>
    <path d="M6.055,93.085c4.915,4.906,13.096,6.689,19.621,8.074c10.997,2.335,22.342,3.196,33.569,3.196   c10.459,0,20.991-0.771,31.273-2.734c7.192-1.373,16.497-3.125,21.918-8.536c-4.915-4.909-13.096-6.691-19.622-8.078   c-10.996-2.335-22.342-3.196-33.569-3.196c-10.459,0-20.991,0.771-31.273,2.733C20.78,85.917,11.475,87.671,6.055,93.085" id="path31" style="fill:#7C7C7C;"/>
    <linearGradient gradientUnits="userSpaceOnUse" id="XMLID_9_" x1="0.9468" x2="117.5381" y1="68.8882" y2="68.8882">
      <stop id="stop34" offset="0" style="stop-color:#DFDFDF"/>
      <stop id="stop36" offset="0.2168" style="stop-color:#DADADA"/>
      <stop id="stop38" offset="0.4798" style="stop-color:#CBCBCB"/>
      <stop id="stop40" offset="0.7655" style="stop-color:#B3B3B3"/>
      <stop id="stop42" offset="1" style="stop-color:#9A9999"/>
    </linearGradient>
    <path d="M59.245,41.385c-16.198,0-34.292,0.912-49.354,7.531c-9.702,4.263-8.862,9.427-8.862,18.821   c0,10.065-1.553,16.547,8.862,21.125c15.062,6.617,33.156,7.53,49.354,7.53c16.196,0,34.29-0.913,49.353-7.53   c10.408-4.576,8.859-11.048,8.859-21.108c0-9.401,0.848-14.573-8.859-18.838C93.535,42.297,75.441,41.385,59.245,41.385" id="path44" style="fill:url(#XMLID_9_);"/>
    <linearGradient gradientTransform="matrix(0 205.5463 205.5463 0 -94893.4844 51026.3828)" gradientUnits="userSpaceOnUse" id="XMLID_10_" x1="-248.5581" x2="-246.7719" y1="461.9526" y2="461.9526">
      <stop id="stop47" offset="0" style="stop-color:#FFFFFF"/>
      <stop id="stop49" offset="1" style="stop-color:#000000"/>
    </linearGradient>
    <path d="M0.111,57.429c0,7.477,0,14.954,0,22.43c0,10.707,20.243,13.585,27.649,14.884   c19.037,3.343,38.954,3.471,58.077,0.772c7.422-1.048,32.537-3.765,32.537-15.166c1.182-7.066,0-15.252,0-22.431   c0-10.706-20.244-13.583-27.648-14.883c-19.038-3.343-38.953-3.472-58.076-0.773C25.231,43.311,0.111,46.029,0.111,57.429    M1.945,80.349c0-7.115-1.564-16.01,0-22.92c0-8.951,21.521-11.871,27.212-12.829c19.661-3.311,40.515-3.311,60.175,0   c5.69,0.958,27.209,3.878,27.209,12.829c0.729,3.215,0,7.433,0,10.713c0,3.742,0.83,8.543,0,12.208   c0,8.953-21.519,11.871-27.209,12.83c-19.66,3.31-40.515,3.31-60.175,0C23.464,92.22,1.945,89.302,1.945,80.349" id="path51" style="fill:url(#XMLID_10_);"/>
    <path d="M115.27,54.425c0.671,4.573,0.051,9.643,0.051,14.252c0,3.565,1.216,9.359-1.346,12.368   c-4.271,5.015-12.505,6.905-18.577,8.334c-11.8,2.777-24.058,3.654-36.152,3.654c-11.452,0-23.015-0.81-34.23-3.223   c-6.582-1.414-14.91-3.239-19.918-8.144c-2.984-2.923-1.929-7.76-1.929-11.542c0-5.056-0.728-10.69,0.052-15.7   c-3.041,3.654-1.275,12.391-1.275,16.694c0,3.514-1.218,9.306,1.302,12.282c4.13,4.883,12.11,6.75,17.999,8.173   c12.385,2.994,25.292,3.902,38,3.902c12.086,0,24.31-0.848,36.131-3.471c6.381-1.414,14.458-3.222,19.302-8   c2.923-2.881,1.863-7.727,1.863-11.439C116.541,67.979,118.502,58.308,115.27,54.425" id="path53" style="fill:#C6C6C6;"/>
    <path d="M115.32,61.056c0,3.097-9.527,6.556-11.499,7.343c-13.091,5.226-27.68,6.583-41.647,6.772   c-15.248,0.207-31.057-1.053-45.492-6.314c-0.783-0.285-14.7-6.205-13.492-7.873c0.264-0.363,11.672,4.183,12.449,4.4   c15.042,4.237,31,5.145,46.551,4.978c13.896-0.147,28.103-1.224,41.503-5.145C104.532,64.973,115.32,61.664,115.32,61.056" id="path55" style="fill:#E5E5E5;"/>
    <path d="M6.055,52.496c4.914,4.908,13.096,6.691,19.621,8.076c10.997,2.334,22.344,3.195,33.569,3.195   c10.459,0,20.991-0.771,31.273-2.732c7.192-1.372,16.499-3.125,21.918-8.539c-4.913-4.908-13.096-6.691-19.622-8.075   c-10.996-2.334-22.342-3.194-33.569-3.194c-10.459,0-20.991,0.77-31.273,2.732C20.78,45.33,11.475,47.083,6.055,52.496" id="path57" style="fill:#7C7C7C;"/>
    <linearGradient gradientUnits="userSpaceOnUse" id="XMLID_11_" x1="0.9468" x2="117.5381" y1="28.5176" y2="28.5176">
      <stop id="stop60" offset="0" style="stop-color:#DFDFDF"/>
      <stop id="stop62" offset="0.2168" style="stop-color:#DADADA"/>
      <stop id="stop64" offset="0.4798" style="stop-color:#CBCBCB"/>
      <stop id="stop66" offset="0.7655" style="stop-color:#B3B3B3"/>
      <stop id="stop68" offset="1" style="stop-color:#9A9999"/>
    </linearGradient>
    <path d="M59.245,1.013c-16.198,0-34.292,0.914-49.354,7.533c-9.702,4.263-8.862,9.425-8.862,18.819   c0,10.065-1.553,16.549,8.862,21.125c15.062,6.619,33.156,7.533,49.354,7.533c16.196,0,34.29-0.914,49.353-7.533   c10.408-4.574,8.859-11.047,8.859-21.106c0-9.401,0.848-14.573-8.859-18.838C93.535,1.927,75.441,1.013,59.245,1.013" id="path70" style="fill:url(#XMLID_11_);"/>
    <linearGradient gradientTransform="matrix(0 205.5401 205.5401 0 -94889.9219 51003.0078)" gradientUnits="userSpaceOnUse" id="XMLID_12_" x1="-248.644" x2="-246.8635" y1="461.9517" y2="461.9517">
      <stop id="stop73" offset="0" style="stop-color:#FFFFFF"/>
      <stop id="stop75" offset="1" style="stop-color:#000000"/>
    </linearGradient>
    <path d="M0.111,17.058c0,7.477,0,14.952,0,22.429c0,10.706,20.244,13.583,27.649,14.883   c19.037,3.342,38.954,3.473,58.077,0.773c7.419-1.048,32.537-3.766,32.537-15.165c1.182-7.066,0-15.253,0-22.429   c0-10.708-20.242-13.584-27.648-14.885C71.688-0.678,51.773-0.807,32.65,1.893C25.229,2.94,0.111,5.657,0.111,17.058 M1.945,39.978   c0-7.116-1.563-16.009,0-22.919c0-8.954,21.519-11.87,27.212-12.83c19.661-3.309,40.515-3.309,60.175,0   c5.693,0.96,27.209,3.876,27.209,12.83c0.727,3.216,0,7.432,0,10.713c0,3.742,0.83,8.542,0,12.206   c0,8.952-21.519,11.87-27.209,12.83c-19.66,3.309-40.515,3.309-60.175,0C23.464,51.848,1.945,48.93,1.945,39.978" id="path77" style="fill:url(#XMLID_12_);"/>
    <path d="M115.27,14.055c0.688,4.561,0.051,9.649,0.051,14.248c0,3.565,1.216,9.359-1.346,12.368   c-4.271,5.016-12.504,6.907-18.577,8.336c-11.8,2.775-24.058,3.653-36.152,3.653c-11.452,0-23.015-0.808-34.23-3.22   c-6.582-1.417-14.912-3.241-19.918-8.146c-2.984-2.924-1.929-7.761-1.929-11.542c0-5.043-0.749-10.701,0.052-15.696   c-3.039,3.654-1.275,12.389-1.275,16.692c0,3.516-1.218,9.305,1.302,12.282c4.13,4.882,12.11,6.75,17.999,8.172   c12.385,2.995,25.292,3.904,38,3.904c12.086,0,24.31-0.848,36.131-3.471c6.381-1.415,14.458-3.222,19.302-8   c2.923-2.881,1.863-7.725,1.863-11.438C116.541,27.607,118.5,17.938,115.27,14.055" id="path79" style="fill:#C6C6C6;"/>
    <path d="M115.32,20.686c0,3.094-9.531,6.556-11.499,7.341c-13.091,5.226-27.68,6.585-41.647,6.774   c-15.248,0.207-31.057-1.055-45.492-6.316c-0.784-0.285-14.697-6.201-13.492-7.871c0.262-0.363,11.674,4.181,12.449,4.4   c15.042,4.235,31,5.145,46.551,4.978c13.896-0.148,28.103-1.226,41.503-5.145C104.532,24.603,115.32,21.29,115.32,20.686" id="path81" style="fill:#E5E5E5;"/>
    <path d="M6.406,14.686c15.486,8.523,36.565,8.748,53.676,8.583c11.762-0.115,23.614-0.8,35.222-2.802   c5.619-0.97,14.366-1.932,18.547-6.401c-5.692-4.75-14.384-6.305-21.437-7.593c-11.865-2.166-24-2.821-36.045-2.703   c-10.819,0.106-21.781,0.69-32.397,2.887C18.28,7.833,9.974,9.489,6.406,14.686" id="path83" style="fill:#EAEAEA;"/>
    <path d="M75.179,7.957c8.388,0.161,16.835,0.947,24.993,2.965c0.513,0.126,8.388,2.143,8.388,2.402   c0-1.625-12.061-3.779-13.161-4.017C83.467,6.721,71.218,5.464,59.014,5.333C47.72,5.214,36.309,5.961,25.229,8.233   c-1.168,0.239-12.772,2.226-12.772,4.119c0,3.243,36.386,4.876,38.848,4.989c3.257,0.15,20.747,3.581,16.654-2.647   C64.02,8.7,69.725,7.852,75.179,7.957" id="path85" style="fill:#F4F4F4;"/>
    <path d="M1.712,33.572c45.737,14.099,73.128,12.257,117.202-1.649" id="path87" style="fill:none;stroke:#9A9999;"/>
    <path d="M1.37,72.804c45.737,14.1,73.128,12.257,117.202-1.649" id="path89" style="fill:none;stroke:#9A9999;"/>
    <path d="M0.916,112.063c45.737,14.098,73.128,12.256,117.202-1.65" id="path91" style="fill:none;stroke:#9A9999;"/>
  </g>
</svg>
